<svg width="1920" height="1080" viewBox="0 0 1920 1080" fill="none" xmlns="http://www.w3.org/2000/svg">
  <defs>
    <linearGradient id="base" x1="0" y1="0" x2="1920" y2="1080" gradientUnits="userSpaceOnUse">
      <stop stop-color="#050505"/>
      <stop offset="1" stop-color="#242424"/>
    </linearGradient>
    <radialGradient id="glow1" cx="0" cy="0" r="1" gradientUnits="userSpaceOnUse" gradientTransform="translate(360 220) rotate(26) scale(520 300)">
      <stop stop-color="#FFFFFF" stop-opacity="0.22"/>
      <stop offset="1" stop-color="#FFFFFF" stop-opacity="0"/>
    </radialGradient>
    <radialGradient id="glow2" cx="0" cy="0" r="1" gradientUnits="userSpaceOnUse" gradientTransform="translate(1540 820) rotate(18) scale(560 320)">
      <stop stop-color="#FFFFFF" stop-opacity="0.18"/>
      <stop offset="1" stop-color="#FFFFFF" stop-opacity="0"/>
    </radialGradient>
    <pattern id="grid" width="90" height="90" patternUnits="userSpaceOnUse">
      <path d="M90 0H0V90" stroke="#FFFFFF" stroke-opacity="0.07"/>
    </pattern>
  </defs>

  <rect width="1920" height="1080" fill="url(#base)"/>
  <rect width="1920" height="1080" fill="url(#glow1)"/>
  <rect width="1920" height="1080" fill="url(#glow2)"/>
  <rect width="1920" height="1080" fill="url(#grid)"/>

  <g opacity="0.24" stroke="#FFFFFF" stroke-width="2">
    <path d="M110 760L420 560L780 640L1130 430L1520 540L1820 450"/>
    <path d="M150 870L470 710L810 790L1200 610L1600 730L1880 620"/>
    <path d="M80 660L390 470L730 530L1100 330L1490 450L1790 360"/>
  </g>

  <g opacity="0.5" fill="#FFFFFF">
    <circle cx="420" cy="560" r="5"/>
    <circle cx="780" cy="640" r="5"/>
    <circle cx="1130" cy="430" r="5"/>
    <circle cx="1520" cy="540" r="5"/>
    <circle cx="470" cy="710" r="5"/>
    <circle cx="810" cy="790" r="5"/>
  </g>
</svg>
